<mxfile host="app.diagrams.net" modified="2022-03-18T02:43:22.917Z" agent="5.0 (Windows NT 10.0; Win64; x64) AppleWebKit/537.36 (KHTML, like Gecko) Chrome/99.0.4844.51 Safari/537.36 Edg/99.0.1150.39" etag="SutT0RGFm6q9yfY26ZRl" version="17.1.3" type="github">
  <diagram id="wFE0QG_FPsp0jaGvCLVb" name="Page-1">
    <mxGraphModel dx="4004" dy="2327" grid="0" gridSize="10" guides="1" tooltips="1" connect="1" arrows="1" fold="1" page="0" pageScale="1" pageWidth="850" pageHeight="1100" math="0" shadow="0">
      <root>
        <mxCell id="0" />
        <mxCell id="1" parent="0" />
        <mxCell id="cfSpo1sAoN0eUYBv1VR0-5" value="&lt;p style=&quot;line-height: normal; margin: 0pt 0in; text-indent: 0in; text-align: left; direction: ltr; unicode-bidi: embed; word-break: normal; font-size: 12px;&quot;&gt;&lt;span style=&quot;font-size: 12px; font-family: &amp;quot;segoe ui&amp;quot;; letter-spacing: 0pt; vertical-align: baseline;&quot;&gt;data source&lt;/span&gt;&lt;/p&gt;" style="rounded=1;whiteSpace=wrap;html=1;fillColor=none;strokeColor=#6c8ebf;verticalAlign=top;fontSize=12;" parent="1" vertex="1">
          <mxGeometry x="-1593" y="-100" width="1102" height="81" as="geometry" />
        </mxCell>
        <mxCell id="cfSpo1sAoN0eUYBv1VR0-1" value="&lt;p style=&quot;line-height: normal; margin: 0pt 0in; text-indent: 0in; text-align: left; direction: ltr; unicode-bidi: embed; word-break: normal; font-size: 12px;&quot;&gt;&lt;font face=&quot;segoe ui&quot; style=&quot;font-size: 12px;&quot;&gt;&lt;span style=&quot;font-size: 12px;&quot;&gt;ods&lt;/span&gt;&lt;/font&gt;&lt;/p&gt;" style="rounded=1;whiteSpace=wrap;html=1;fillColor=none;strokeColor=#6c8ebf;verticalAlign=top;fontSize=12;" parent="1" vertex="1">
          <mxGeometry x="-1595" y="-255" width="1102" height="94" as="geometry" />
        </mxCell>
        <mxCell id="cfSpo1sAoN0eUYBv1VR0-11" value="&lt;p style=&quot;line-height: normal ; margin-top: 0pt ; margin-bottom: 0pt ; margin-left: 0in ; margin-right: 0in ; text-indent: 0in ; text-align: left ; direction: ltr ; unicode-bidi: embed ; word-break: normal&quot;&gt;offline&lt;/p&gt;" style="rounded=1;whiteSpace=wrap;html=1;fillColor=none;strokeColor=#6c8ebf;verticalAlign=top;dashed=1;" parent="1" vertex="1">
          <mxGeometry x="-1006" y="-759" width="536" height="338" as="geometry" />
        </mxCell>
        <mxCell id="cfSpo1sAoN0eUYBv1VR0-15" value="&lt;p style=&quot;line-height: normal ; margin-top: 0pt ; margin-bottom: 0pt ; margin-left: 0in ; margin-right: 0in ; text-indent: 0in ; text-align: left ; direction: ltr ; unicode-bidi: embed ; word-break: normal&quot;&gt;realtime&lt;/p&gt;" style="rounded=1;whiteSpace=wrap;html=1;fillColor=none;strokeColor=#6c8ebf;verticalAlign=top;dashed=1;" parent="1" vertex="1">
          <mxGeometry x="-1612" y="-763" width="508" height="338" as="geometry" />
        </mxCell>
        <mxCell id="cfSpo1sAoN0eUYBv1VR0-16" value="&lt;p style=&quot;line-height: normal ; margin-top: 0pt ; margin-bottom: 0pt ; margin-left: 0in ; margin-right: 0in ; text-indent: 0in ; text-align: left ; direction: ltr ; unicode-bidi: embed ; word-break: normal&quot;&gt;&lt;font face=&quot;segoe ui&quot;&gt;&lt;span style=&quot;font-size: 24px&quot;&gt;ads&lt;/span&gt;&lt;/font&gt;&lt;/p&gt;" style="rounded=1;whiteSpace=wrap;html=1;fillColor=none;strokeColor=#6c8ebf;verticalAlign=top;" parent="1" vertex="1">
          <mxGeometry x="-1612.5" y="-885" width="1137" height="84" as="geometry" />
        </mxCell>
        <mxCell id="cfSpo1sAoN0eUYBv1VR0-18" value="&lt;p style=&quot;line-height: normal; margin: 0pt 0in; text-indent: 0in; text-align: left; direction: ltr; unicode-bidi: embed; word-break: normal; font-size: 12px;&quot;&gt;&lt;font face=&quot;segoe ui&quot; style=&quot;font-size: 12px;&quot;&gt;&lt;span style=&quot;font-size: 12px;&quot;&gt;dim&lt;/span&gt;&lt;/font&gt;&lt;/p&gt;" style="rounded=1;whiteSpace=wrap;html=1;fillColor=none;strokeColor=#6c8ebf;verticalAlign=top;fontSize=12;" parent="1" vertex="1">
          <mxGeometry x="-1604.5" y="-741" width="99" height="281" as="geometry" />
        </mxCell>
        <mxCell id="cfSpo1sAoN0eUYBv1VR0-22" value="&lt;p style=&quot;line-height: normal; margin: 0pt 0in; text-indent: 0in; text-align: left; direction: ltr; unicode-bidi: embed; word-break: normal; font-size: 12px;&quot;&gt;&lt;font face=&quot;segoe ui&quot; style=&quot;font-size: 12px;&quot;&gt;&lt;span style=&quot;font-size: 12px;&quot;&gt;dwd&lt;/span&gt;&lt;/font&gt;&lt;/p&gt;" style="rounded=1;whiteSpace=wrap;html=1;fillColor=none;strokeColor=#6c8ebf;verticalAlign=top;fontSize=12;" parent="1" vertex="1">
          <mxGeometry x="-1485" y="-385" width="898" height="94" as="geometry" />
        </mxCell>
        <mxCell id="cfSpo1sAoN0eUYBv1VR0-24" value="&lt;p style=&quot;line-height: normal ; margin-top: 0pt ; margin-bottom: 0pt ; margin-left: 0in ; margin-right: 0in ; text-indent: 0in ; text-align: left ; direction: ltr ; unicode-bidi: embed ; word-break: normal&quot;&gt;ads_realtimeIndex1&lt;/p&gt;" style="rounded=1;whiteSpace=wrap;html=1;fillColor=#dae8fc;strokeColor=#6c8ebf;verticalAlign=top;" parent="1" vertex="1">
          <mxGeometry x="-1518.5" y="-858.5" width="112" height="30" as="geometry" />
        </mxCell>
        <mxCell id="cfSpo1sAoN0eUYBv1VR0-29" value="&lt;p style=&quot;line-height: normal ; margin-top: 0pt ; margin-bottom: 0pt ; margin-left: 0in ; margin-right: 0in ; text-indent: 0in ; text-align: left ; direction: ltr ; unicode-bidi: embed ; word-break: normal&quot;&gt;&lt;br&gt;&lt;/p&gt;" style="rounded=1;whiteSpace=wrap;html=1;fillColor=none;strokeColor=#6c8ebf;verticalAlign=top;dashed=1;" parent="1" vertex="1">
          <mxGeometry x="-1547" y="-872" width="432" height="57" as="geometry" />
        </mxCell>
        <mxCell id="cfSpo1sAoN0eUYBv1VR0-30" value="&lt;p style=&quot;line-height: normal ; margin-top: 0pt ; margin-bottom: 0pt ; margin-left: 0in ; margin-right: 0in ; text-indent: 0in ; text-align: left ; direction: ltr ; unicode-bidi: embed ; word-break: normal&quot;&gt;&lt;br&gt;&lt;/p&gt;" style="rounded=1;whiteSpace=wrap;html=1;fillColor=none;strokeColor=#6c8ebf;verticalAlign=top;dashed=1;" parent="1" vertex="1">
          <mxGeometry x="-1011.5" y="-867.5" width="432" height="58" as="geometry" />
        </mxCell>
        <mxCell id="l7CJEQ0vIfHJPxA5SVOe-96" style="edgeStyle=orthogonalEdgeStyle;rounded=0;orthogonalLoop=1;jettySize=auto;html=1;entryX=0;entryY=0.5;entryDx=0;entryDy=0;fontColor=#006EAF;strokeColor=#006EAF;" edge="1" parent="1" source="pqG9o0sj6zr8Hv4IB4PB-32" target="pqG9o0sj6zr8Hv4IB4PB-70">
          <mxGeometry relative="1" as="geometry" />
        </mxCell>
        <mxCell id="l7CJEQ0vIfHJPxA5SVOe-97" value="R" style="edgeLabel;html=1;align=center;verticalAlign=middle;resizable=0;points=[];fontColor=#006EAF;" vertex="1" connectable="0" parent="l7CJEQ0vIfHJPxA5SVOe-96">
          <mxGeometry x="0.2477" y="-1" relative="1" as="geometry">
            <mxPoint as="offset" />
          </mxGeometry>
        </mxCell>
        <mxCell id="pqG9o0sj6zr8Hv4IB4PB-32" value="dim_region" style="rounded=1;whiteSpace=wrap;html=1;fillColor=#dae8fc;strokeColor=#6c8ebf;" parent="1" vertex="1">
          <mxGeometry x="-1599" y="-665.5" width="88" height="35" as="geometry" />
        </mxCell>
        <mxCell id="l7CJEQ0vIfHJPxA5SVOe-98" style="edgeStyle=orthogonalEdgeStyle;rounded=0;orthogonalLoop=1;jettySize=auto;html=1;entryX=0;entryY=0.5;entryDx=0;entryDy=0;fontColor=#006EAF;strokeColor=#006EAF;" edge="1" parent="1" source="pqG9o0sj6zr8Hv4IB4PB-33" target="pqG9o0sj6zr8Hv4IB4PB-72">
          <mxGeometry relative="1" as="geometry" />
        </mxCell>
        <mxCell id="l7CJEQ0vIfHJPxA5SVOe-99" value="R" style="edgeLabel;html=1;align=center;verticalAlign=middle;resizable=0;points=[];fontColor=#006EAF;" vertex="1" connectable="0" parent="l7CJEQ0vIfHJPxA5SVOe-98">
          <mxGeometry x="0.3388" y="-2" relative="1" as="geometry">
            <mxPoint as="offset" />
          </mxGeometry>
        </mxCell>
        <mxCell id="pqG9o0sj6zr8Hv4IB4PB-33" value="dim_source" style="rounded=1;whiteSpace=wrap;html=1;fillColor=#dae8fc;strokeColor=#6c8ebf;fontSize=9;" parent="1" vertex="1">
          <mxGeometry x="-1599" y="-619.5" width="88" height="35" as="geometry" />
        </mxCell>
        <mxCell id="pqG9o0sj6zr8Hv4IB4PB-34" value="&lt;h1&gt;...&lt;/h1&gt;" style="text;html=1;strokeColor=none;fillColor=none;spacing=5;spacingTop=-20;whiteSpace=wrap;overflow=hidden;rounded=0;fontSize=12;fontColor=#000000;" parent="1" vertex="1">
          <mxGeometry x="-1575" y="-567.5" width="28" height="35" as="geometry" />
        </mxCell>
        <mxCell id="pqG9o0sj6zr8Hv4IB4PB-35" value="dim_type" style="rounded=1;whiteSpace=wrap;html=1;fillColor=#dae8fc;strokeColor=#6c8ebf;" parent="1" vertex="1">
          <mxGeometry x="-1601" y="-515.5" width="90" height="35" as="geometry" />
        </mxCell>
        <mxCell id="pqG9o0sj6zr8Hv4IB4PB-57" style="edgeStyle=orthogonalEdgeStyle;rounded=0;orthogonalLoop=1;jettySize=auto;html=1;exitX=0.5;exitY=1;exitDx=0;exitDy=0;fontSize=9;fontColor=#006EaF;strokeColor=default;" parent="1" source="cfSpo1sAoN0eUYBv1VR0-18" target="cfSpo1sAoN0eUYBv1VR0-18" edge="1">
          <mxGeometry relative="1" as="geometry" />
        </mxCell>
        <mxCell id="pqG9o0sj6zr8Hv4IB4PB-58" value="log" style="rounded=1;whiteSpace=wrap;html=1;fillColor=#dae8fc;strokeColor=#6c8ebf;" parent="1" vertex="1">
          <mxGeometry x="-864" y="-71" width="72" height="35" as="geometry" />
        </mxCell>
        <mxCell id="pqG9o0sj6zr8Hv4IB4PB-59" value="file" style="rounded=1;whiteSpace=wrap;html=1;fillColor=#dae8fc;strokeColor=#6c8ebf;" parent="1" vertex="1">
          <mxGeometry x="-779" y="-71" width="72" height="35" as="geometry" />
        </mxCell>
        <mxCell id="pqG9o0sj6zr8Hv4IB4PB-60" value="api" style="rounded=1;whiteSpace=wrap;html=1;fillColor=#dae8fc;strokeColor=#6c8ebf;" parent="1" vertex="1">
          <mxGeometry x="-669" y="-71" width="72" height="35" as="geometry" />
        </mxCell>
        <mxCell id="l7CJEQ0vIfHJPxA5SVOe-73" style="edgeStyle=orthogonalEdgeStyle;rounded=0;orthogonalLoop=1;jettySize=auto;html=1;entryX=0.5;entryY=1;entryDx=0;entryDy=0;fontColor=#00FFFF;strokeColor=#00FFFF;" edge="1" parent="1" source="pqG9o0sj6zr8Hv4IB4PB-65" target="l7CJEQ0vIfHJPxA5SVOe-59">
          <mxGeometry relative="1" as="geometry">
            <Array as="points">
              <mxPoint x="-1203" y="-774" />
              <mxPoint x="-1325" y="-774" />
            </Array>
          </mxGeometry>
        </mxCell>
        <mxCell id="l7CJEQ0vIfHJPxA5SVOe-76" value="R" style="edgeLabel;html=1;align=center;verticalAlign=middle;resizable=0;points=[];fontColor=#00FFFF;" vertex="1" connectable="0" parent="l7CJEQ0vIfHJPxA5SVOe-73">
          <mxGeometry x="-0.0567" relative="1" as="geometry">
            <mxPoint as="offset" />
          </mxGeometry>
        </mxCell>
        <mxCell id="l7CJEQ0vIfHJPxA5SVOe-77" style="edgeStyle=orthogonalEdgeStyle;rounded=0;orthogonalLoop=1;jettySize=auto;html=1;entryX=0.5;entryY=1;entryDx=0;entryDy=0;fontColor=#00FFFF;strokeColor=#00FFFF;" edge="1" parent="1" source="pqG9o0sj6zr8Hv4IB4PB-65" target="l7CJEQ0vIfHJPxA5SVOe-58">
          <mxGeometry relative="1" as="geometry">
            <Array as="points">
              <mxPoint x="-1203" y="-774" />
              <mxPoint x="-1183" y="-774" />
            </Array>
          </mxGeometry>
        </mxCell>
        <mxCell id="l7CJEQ0vIfHJPxA5SVOe-78" value="R" style="edgeLabel;html=1;align=center;verticalAlign=middle;resizable=0;points=[];fontColor=#00FFFF;" vertex="1" connectable="0" parent="l7CJEQ0vIfHJPxA5SVOe-77">
          <mxGeometry x="0.1277" relative="1" as="geometry">
            <mxPoint as="offset" />
          </mxGeometry>
        </mxCell>
        <mxCell id="pqG9o0sj6zr8Hv4IB4PB-65" value="&lt;p style=&quot;line-height: normal ; margin: 0pt 0in ; text-indent: 0in ; text-align: left ; direction: ltr ; unicode-bidi: embed ; word-break: normal ; font-size: 12px&quot;&gt;dws&lt;/p&gt;" style="rounded=1;whiteSpace=wrap;html=1;fillColor=none;strokeColor=#6c8ebf;verticalAlign=top;fontSize=12;" parent="1" vertex="1">
          <mxGeometry x="-1284" y="-707.25" width="162" height="124" as="geometry" />
        </mxCell>
        <mxCell id="pqG9o0sj6zr8Hv4IB4PB-66" value="dws_site" style="rounded=1;whiteSpace=wrap;html=1;fillColor=#dae8fc;strokeColor=#6c8ebf;" parent="1" vertex="1">
          <mxGeometry x="-1235" y="-683" width="71" height="18" as="geometry" />
        </mxCell>
        <mxCell id="pqG9o0sj6zr8Hv4IB4PB-70" value="dws_region" style="rounded=1;whiteSpace=wrap;html=1;fillColor=#dae8fc;strokeColor=#6c8ebf;" parent="1" vertex="1">
          <mxGeometry x="-1235" y="-654" width="71" height="17.5" as="geometry" />
        </mxCell>
        <mxCell id="pqG9o0sj6zr8Hv4IB4PB-72" value="dws_source" style="rounded=1;whiteSpace=wrap;html=1;fillColor=#dae8fc;strokeColor=#6c8ebf;" parent="1" vertex="1">
          <mxGeometry x="-1245" y="-615" width="91" height="18" as="geometry" />
        </mxCell>
        <mxCell id="pqG9o0sj6zr8Hv4IB4PB-75" value="&lt;h1&gt;...&lt;/h1&gt;" style="text;html=1;strokeColor=none;fillColor=none;spacing=5;spacingTop=-20;whiteSpace=wrap;overflow=hidden;rounded=0;fontSize=12;fontColor=#000000;" parent="1" vertex="1">
          <mxGeometry x="-1217" y="-654" width="28" height="35" as="geometry" />
        </mxCell>
        <mxCell id="pqG9o0sj6zr8Hv4IB4PB-95" value="&lt;p style=&quot;line-height: normal ; margin: 0pt 0in ; text-indent: 0in ; text-align: left ; direction: ltr ; unicode-bidi: embed ; word-break: normal ; font-size: 12px&quot;&gt;dwm&lt;/p&gt;" style="rounded=1;whiteSpace=wrap;html=1;fillColor=none;strokeColor=#6c8ebf;verticalAlign=top;fontSize=12;" parent="1" vertex="1">
          <mxGeometry x="-1448" y="-567.5" width="218" height="115" as="geometry" />
        </mxCell>
        <mxCell id="l7CJEQ0vIfHJPxA5SVOe-72" value="R" style="edgeStyle=orthogonalEdgeStyle;rounded=0;orthogonalLoop=1;jettySize=auto;html=1;fontColor=#00FFFF;strokeColor=#91FBFF;entryX=0.5;entryY=1;entryDx=0;entryDy=0;fillColor=#0050ef;" edge="1" parent="1" source="pqG9o0sj6zr8Hv4IB4PB-102" target="cfSpo1sAoN0eUYBv1VR0-24">
          <mxGeometry relative="1" as="geometry" />
        </mxCell>
        <mxCell id="pqG9o0sj6zr8Hv4IB4PB-102" value="&lt;p style=&quot;line-height: normal ; margin: 0pt 0in ; text-indent: 0in ; text-align: left ; direction: ltr ; unicode-bidi: embed ; word-break: normal ; font-size: 12px&quot;&gt;&lt;br&gt;&lt;/p&gt;" style="rounded=1;whiteSpace=wrap;html=1;fillColor=none;strokeColor=#6c8ebf;verticalAlign=top;fontSize=12;dashed=1;" parent="1" vertex="1">
          <mxGeometry x="-1441.5" y="-549.5" width="92" height="91" as="geometry" />
        </mxCell>
        <mxCell id="l7CJEQ0vIfHJPxA5SVOe-79" style="edgeStyle=orthogonalEdgeStyle;rounded=0;orthogonalLoop=1;jettySize=auto;html=1;entryX=0.5;entryY=1;entryDx=0;entryDy=0;fontColor=#00FFFF;strokeColor=#00FFFF;" edge="1" parent="1" source="pqG9o0sj6zr8Hv4IB4PB-123" target="l7CJEQ0vIfHJPxA5SVOe-60">
          <mxGeometry relative="1" as="geometry">
            <Array as="points">
              <mxPoint x="-1053" y="-528" />
              <mxPoint x="-1053" y="-782" />
              <mxPoint x="-928" y="-782" />
            </Array>
          </mxGeometry>
        </mxCell>
        <mxCell id="l7CJEQ0vIfHJPxA5SVOe-80" value="R" style="edgeLabel;html=1;align=center;verticalAlign=middle;resizable=0;points=[];fontColor=#00FFFF;" vertex="1" connectable="0" parent="l7CJEQ0vIfHJPxA5SVOe-79">
          <mxGeometry x="-0.6403" y="2" relative="1" as="geometry">
            <mxPoint as="offset" />
          </mxGeometry>
        </mxCell>
        <mxCell id="pqG9o0sj6zr8Hv4IB4PB-123" value="&lt;p style=&quot;line-height: normal ; margin: 0pt 0in ; text-indent: 0in ; text-align: left ; direction: ltr ; unicode-bidi: embed ; word-break: normal ; font-size: 12px&quot;&gt;dws&lt;/p&gt;" style="rounded=1;whiteSpace=wrap;html=1;fillColor=none;strokeColor=#6c8ebf;verticalAlign=top;fontSize=12;" parent="1" vertex="1">
          <mxGeometry x="-941.5" y="-591.5" width="245" height="127" as="geometry" />
        </mxCell>
        <mxCell id="pqG9o0sj6zr8Hv4IB4PB-124" value="dws_user" style="rounded=1;whiteSpace=wrap;html=1;fillColor=#dae8fc;strokeColor=#6c8ebf;" parent="1" vertex="1">
          <mxGeometry x="-800.5" y="-567.5" width="71" height="18" as="geometry" />
        </mxCell>
        <mxCell id="pqG9o0sj6zr8Hv4IB4PB-125" value="dws_region" style="rounded=1;whiteSpace=wrap;html=1;fillColor=#dae8fc;strokeColor=#6c8ebf;" parent="1" vertex="1">
          <mxGeometry x="-800.5" y="-538.5" width="71" height="17.5" as="geometry" />
        </mxCell>
        <mxCell id="pqG9o0sj6zr8Hv4IB4PB-126" value="dws_equipment" style="rounded=1;whiteSpace=wrap;html=1;fillColor=#dae8fc;strokeColor=#6c8ebf;" parent="1" vertex="1">
          <mxGeometry x="-809" y="-498.5" width="91" height="18" as="geometry" />
        </mxCell>
        <mxCell id="pqG9o0sj6zr8Hv4IB4PB-127" value="&lt;h1&gt;...&lt;/h1&gt;" style="text;html=1;strokeColor=none;fillColor=none;spacing=5;spacingTop=-20;whiteSpace=wrap;overflow=hidden;rounded=0;fontSize=12;fontColor=#000000;" parent="1" vertex="1">
          <mxGeometry x="-776" y="-535.5" width="28" height="35" as="geometry" />
        </mxCell>
        <mxCell id="pqG9o0sj6zr8Hv4IB4PB-128" style="edgeStyle=orthogonalEdgeStyle;rounded=0;orthogonalLoop=1;jettySize=auto;html=1;entryX=1;entryY=0.5;entryDx=0;entryDy=0;fontSize=9;fontColor=#006EaF;strokeColor=#006EAF;fillColor=#1ba1e2;" parent="1" source="pqG9o0sj6zr8Hv4IB4PB-129" target="pqG9o0sj6zr8Hv4IB4PB-131" edge="1">
          <mxGeometry relative="1" as="geometry" />
        </mxCell>
        <mxCell id="pqG9o0sj6zr8Hv4IB4PB-129" value="&lt;p style=&quot;line-height: normal ; margin: 0pt 0in ; text-indent: 0in ; text-align: left ; direction: ltr ; unicode-bidi: embed ; word-break: normal ; font-size: 12px&quot;&gt;&lt;br&gt;&lt;/p&gt;" style="rounded=1;whiteSpace=wrap;html=1;fillColor=none;strokeColor=#6c8ebf;verticalAlign=top;fontSize=12;dashed=1;arcSize=16;" parent="1" vertex="1">
          <mxGeometry x="-815.5" y="-572.5" width="107" height="99" as="geometry" />
        </mxCell>
        <mxCell id="pqG9o0sj6zr8Hv4IB4PB-130" value="R/W" style="edgeStyle=orthogonalEdgeStyle;rounded=0;orthogonalLoop=1;jettySize=auto;html=1;entryX=0;entryY=0.5;entryDx=0;entryDy=0;fontSize=9;fontColor=#006EaF;strokeColor=#006EAF;fillColor=#1ba1e2;" parent="1" source="pqG9o0sj6zr8Hv4IB4PB-131" target="pqG9o0sj6zr8Hv4IB4PB-129" edge="1">
          <mxGeometry relative="1" as="geometry" />
        </mxCell>
        <mxCell id="pqG9o0sj6zr8Hv4IB4PB-131" value="dws_tmp" style="rounded=1;whiteSpace=wrap;html=1;fillColor=#dae8fc;strokeColor=#6c8ebf;" parent="1" vertex="1">
          <mxGeometry x="-941.5" y="-531.75" width="71" height="17.5" as="geometry" />
        </mxCell>
        <mxCell id="l7CJEQ0vIfHJPxA5SVOe-81" style="edgeStyle=orthogonalEdgeStyle;rounded=0;orthogonalLoop=1;jettySize=auto;html=1;entryX=0.5;entryY=1;entryDx=0;entryDy=0;fontColor=#00FFFF;strokeColor=#00FFFF;" edge="1" parent="1" source="pqG9o0sj6zr8Hv4IB4PB-132" target="l7CJEQ0vIfHJPxA5SVOe-61">
          <mxGeometry relative="1" as="geometry" />
        </mxCell>
        <mxCell id="l7CJEQ0vIfHJPxA5SVOe-82" value="R" style="edgeLabel;html=1;align=center;verticalAlign=middle;resizable=0;points=[];fontColor=#00FFFF;" vertex="1" connectable="0" parent="l7CJEQ0vIfHJPxA5SVOe-81">
          <mxGeometry x="0.1015" y="3" relative="1" as="geometry">
            <mxPoint as="offset" />
          </mxGeometry>
        </mxCell>
        <mxCell id="l7CJEQ0vIfHJPxA5SVOe-83" style="edgeStyle=orthogonalEdgeStyle;rounded=0;orthogonalLoop=1;jettySize=auto;html=1;fontColor=#00FFFF;strokeColor=#00FFFF;" edge="1" parent="1" source="pqG9o0sj6zr8Hv4IB4PB-132" target="l7CJEQ0vIfHJPxA5SVOe-62">
          <mxGeometry relative="1" as="geometry" />
        </mxCell>
        <mxCell id="l7CJEQ0vIfHJPxA5SVOe-84" value="R" style="edgeLabel;html=1;align=center;verticalAlign=middle;resizable=0;points=[];fontColor=#00FFFF;" vertex="1" connectable="0" parent="l7CJEQ0vIfHJPxA5SVOe-83">
          <mxGeometry x="0.1598" y="1" relative="1" as="geometry">
            <mxPoint as="offset" />
          </mxGeometry>
        </mxCell>
        <mxCell id="pqG9o0sj6zr8Hv4IB4PB-132" value="&lt;p style=&quot;line-height: normal ; margin: 0pt 0in ; text-indent: 0in ; text-align: left ; direction: ltr ; unicode-bidi: embed ; word-break: normal ; font-size: 12px&quot;&gt;dwt&lt;/p&gt;" style="rounded=1;whiteSpace=wrap;html=1;fillColor=none;strokeColor=#6c8ebf;verticalAlign=top;fontSize=12;" parent="1" vertex="1">
          <mxGeometry x="-941.5" y="-735.5" width="245" height="115" as="geometry" />
        </mxCell>
        <mxCell id="pqG9o0sj6zr8Hv4IB4PB-133" value="dwt_user" style="rounded=1;whiteSpace=wrap;html=1;fillColor=#dae8fc;strokeColor=#6c8ebf;" parent="1" vertex="1">
          <mxGeometry x="-800.5" y="-711.5" width="71" height="18" as="geometry" />
        </mxCell>
        <mxCell id="pqG9o0sj6zr8Hv4IB4PB-134" value="dwt_region" style="rounded=1;whiteSpace=wrap;html=1;fillColor=#dae8fc;strokeColor=#6c8ebf;" parent="1" vertex="1">
          <mxGeometry x="-800.5" y="-682.5" width="71" height="17.5" as="geometry" />
        </mxCell>
        <mxCell id="pqG9o0sj6zr8Hv4IB4PB-135" value="dwt_equipment" style="rounded=1;whiteSpace=wrap;html=1;fillColor=#dae8fc;strokeColor=#6c8ebf;" parent="1" vertex="1">
          <mxGeometry x="-810.5" y="-649.5" width="91" height="18" as="geometry" />
        </mxCell>
        <mxCell id="pqG9o0sj6zr8Hv4IB4PB-136" value="&lt;h1&gt;...&lt;/h1&gt;" style="text;html=1;strokeColor=none;fillColor=none;spacing=5;spacingTop=-20;whiteSpace=wrap;overflow=hidden;rounded=0;fontSize=12;fontColor=#000000;" parent="1" vertex="1">
          <mxGeometry x="-780.5" y="-682.5" width="28" height="35" as="geometry" />
        </mxCell>
        <mxCell id="pqG9o0sj6zr8Hv4IB4PB-137" style="edgeStyle=orthogonalEdgeStyle;rounded=0;orthogonalLoop=1;jettySize=auto;html=1;entryX=1;entryY=0.5;entryDx=0;entryDy=0;fontSize=9;fontColor=#006EaF;strokeColor=#006EAF;fillColor=#1ba1e2;" parent="1" source="pqG9o0sj6zr8Hv4IB4PB-138" target="pqG9o0sj6zr8Hv4IB4PB-140" edge="1">
          <mxGeometry relative="1" as="geometry" />
        </mxCell>
        <mxCell id="pqG9o0sj6zr8Hv4IB4PB-138" value="&lt;p style=&quot;line-height: normal ; margin: 0pt 0in ; text-indent: 0in ; text-align: left ; direction: ltr ; unicode-bidi: embed ; word-break: normal ; font-size: 12px&quot;&gt;&lt;br&gt;&lt;/p&gt;" style="rounded=1;whiteSpace=wrap;html=1;fillColor=none;strokeColor=#6c8ebf;verticalAlign=top;fontSize=12;dashed=1;" parent="1" vertex="1">
          <mxGeometry x="-815.5" y="-716.5" width="100" height="92" as="geometry" />
        </mxCell>
        <mxCell id="pqG9o0sj6zr8Hv4IB4PB-139" value="R/W" style="edgeStyle=orthogonalEdgeStyle;rounded=0;orthogonalLoop=1;jettySize=auto;html=1;entryX=0;entryY=0.5;entryDx=0;entryDy=0;fontSize=9;fontColor=#006EaF;strokeColor=#006EAF;fillColor=#1ba1e2;" parent="1" source="pqG9o0sj6zr8Hv4IB4PB-140" target="pqG9o0sj6zr8Hv4IB4PB-138" edge="1">
          <mxGeometry relative="1" as="geometry" />
        </mxCell>
        <mxCell id="pqG9o0sj6zr8Hv4IB4PB-140" value="dwt_tmp" style="rounded=1;whiteSpace=wrap;html=1;fillColor=#dae8fc;strokeColor=#6c8ebf;" parent="1" vertex="1">
          <mxGeometry x="-939.5" y="-679.25" width="71" height="17.5" as="geometry" />
        </mxCell>
        <mxCell id="l7CJEQ0vIfHJPxA5SVOe-75" value="R" style="edgeStyle=orthogonalEdgeStyle;rounded=0;orthogonalLoop=1;jettySize=auto;html=1;fontColor=#006EAF;strokeColor=#006EAF;" edge="1" parent="1" source="pqG9o0sj6zr8Hv4IB4PB-142" target="pqG9o0sj6zr8Hv4IB4PB-65">
          <mxGeometry relative="1" as="geometry">
            <Array as="points">
              <mxPoint x="-1280" y="-571" />
              <mxPoint x="-1203" y="-571" />
            </Array>
          </mxGeometry>
        </mxCell>
        <mxCell id="pqG9o0sj6zr8Hv4IB4PB-142" value="dwm_compute" style="rounded=1;whiteSpace=wrap;html=1;fillColor=#dae8fc;strokeColor=#6c8ebf;" parent="1" vertex="1">
          <mxGeometry x="-1325" y="-520" width="90" height="18" as="geometry" />
        </mxCell>
        <mxCell id="pqG9o0sj6zr8Hv4IB4PB-143" value="dwm_index1" style="rounded=1;whiteSpace=wrap;html=1;fillColor=#dae8fc;strokeColor=#6c8ebf;" parent="1" vertex="1">
          <mxGeometry x="-1431" y="-543.25" width="71" height="18" as="geometry" />
        </mxCell>
        <mxCell id="pqG9o0sj6zr8Hv4IB4PB-144" value="dwm_index2" style="rounded=1;whiteSpace=wrap;html=1;fillColor=#dae8fc;strokeColor=#6c8ebf;" parent="1" vertex="1">
          <mxGeometry x="-1431" y="-515.25" width="71" height="18.5" as="geometry" />
        </mxCell>
        <mxCell id="pqG9o0sj6zr8Hv4IB4PB-145" value="&lt;h1&gt;...&lt;/h1&gt;" style="text;html=1;strokeColor=none;fillColor=none;spacing=5;spacingTop=-20;whiteSpace=wrap;overflow=hidden;rounded=0;fontSize=12;fontColor=#000000;" parent="1" vertex="1">
          <mxGeometry x="-1409.5" y="-518.25" width="28" height="35" as="geometry" />
        </mxCell>
        <mxCell id="pqG9o0sj6zr8Hv4IB4PB-146" value="dwm_indexn" style="rounded=1;whiteSpace=wrap;html=1;fillColor=#dae8fc;strokeColor=#6c8ebf;" parent="1" vertex="1">
          <mxGeometry x="-1431" y="-486.25" width="71" height="18" as="geometry" />
        </mxCell>
        <mxCell id="l7CJEQ0vIfHJPxA5SVOe-1" value="&lt;h1&gt;...&lt;/h1&gt;" style="text;html=1;strokeColor=none;fillColor=none;spacing=5;spacingTop=-20;whiteSpace=wrap;overflow=hidden;rounded=0;fontSize=12;fontColor=#000000;" vertex="1" parent="1">
          <mxGeometry x="-700" y="-73" width="28" height="35" as="geometry" />
        </mxCell>
        <mxCell id="l7CJEQ0vIfHJPxA5SVOe-2" value="&lt;div style=&quot;text-align: left&quot;&gt;&lt;span style=&quot;font-size: 14px&quot;&gt;&lt;font color=&quot;#333333&quot; face=&quot;arial, microsoft yahei, \\5fae软雅黑, \\5b8b体, malgun gothic, meiryo, sans-serif&quot;&gt;networkProbe&lt;/font&gt;&lt;/span&gt;&lt;/div&gt;" style="rounded=1;whiteSpace=wrap;html=1;fillColor=#dae8fc;strokeColor=#6c8ebf;" vertex="1" parent="1">
          <mxGeometry x="-1516" y="-73" width="89" height="35" as="geometry" />
        </mxCell>
        <mxCell id="l7CJEQ0vIfHJPxA5SVOe-3" value="sensor" style="rounded=1;whiteSpace=wrap;html=1;fillColor=#dae8fc;strokeColor=#6c8ebf;" vertex="1" parent="1">
          <mxGeometry x="-1414" y="-73" width="72" height="35" as="geometry" />
        </mxCell>
        <mxCell id="l7CJEQ0vIfHJPxA5SVOe-4" value="&lt;h1&gt;...&lt;/h1&gt;" style="text;html=1;strokeColor=none;fillColor=none;spacing=5;spacingTop=-20;whiteSpace=wrap;overflow=hidden;rounded=0;fontSize=12;fontColor=#000000;" vertex="1" parent="1">
          <mxGeometry x="-1334" y="-73" width="28" height="35" as="geometry" />
        </mxCell>
        <mxCell id="l7CJEQ0vIfHJPxA5SVOe-5" value="router" style="rounded=1;whiteSpace=wrap;html=1;fillColor=#dae8fc;strokeColor=#6c8ebf;" vertex="1" parent="1">
          <mxGeometry x="-1302" y="-73" width="72" height="35" as="geometry" />
        </mxCell>
        <mxCell id="l7CJEQ0vIfHJPxA5SVOe-6" value="&lt;div style=&quot;text-align: left&quot;&gt;&lt;span style=&quot;font-size: 14px&quot;&gt;&lt;font color=&quot;#333333&quot; face=&quot;arial, microsoft yahei, \\5fae软雅黑, \\5b8b体, malgun gothic, meiryo, sans-serif&quot;&gt;ods_networkProbe&lt;/font&gt;&lt;/span&gt;&lt;/div&gt;" style="rounded=1;whiteSpace=wrap;html=1;fillColor=#dae8fc;strokeColor=#6c8ebf;" vertex="1" parent="1">
          <mxGeometry x="-1537" y="-227.5" width="121" height="35" as="geometry" />
        </mxCell>
        <mxCell id="l7CJEQ0vIfHJPxA5SVOe-7" value="ods_sensor" style="rounded=1;whiteSpace=wrap;html=1;fillColor=#dae8fc;strokeColor=#6c8ebf;" vertex="1" parent="1">
          <mxGeometry x="-1403" y="-227.5" width="72" height="35" as="geometry" />
        </mxCell>
        <mxCell id="l7CJEQ0vIfHJPxA5SVOe-8" value="&lt;h1&gt;...&lt;/h1&gt;" style="text;html=1;strokeColor=none;fillColor=none;spacing=5;spacingTop=-20;whiteSpace=wrap;overflow=hidden;rounded=0;fontSize=12;fontColor=#000000;" vertex="1" parent="1">
          <mxGeometry x="-1323" y="-227.5" width="28" height="35" as="geometry" />
        </mxCell>
        <mxCell id="l7CJEQ0vIfHJPxA5SVOe-9" value="ods_router" style="rounded=1;whiteSpace=wrap;html=1;fillColor=#dae8fc;strokeColor=#6c8ebf;" vertex="1" parent="1">
          <mxGeometry x="-1291" y="-227.5" width="72" height="35" as="geometry" />
        </mxCell>
        <mxCell id="l7CJEQ0vIfHJPxA5SVOe-50" style="edgeStyle=orthogonalEdgeStyle;rounded=0;orthogonalLoop=1;jettySize=auto;html=1;entryX=0.515;entryY=1.017;entryDx=0;entryDy=0;entryPerimeter=0;fontColor=#006EAF;strokeColor=#006EAF;" edge="1" parent="1" source="l7CJEQ0vIfHJPxA5SVOe-10" target="l7CJEQ0vIfHJPxA5SVOe-17">
          <mxGeometry relative="1" as="geometry">
            <Array as="points">
              <mxPoint x="-1373" y="-135" />
              <mxPoint x="-1373" y="-135" />
              <mxPoint x="-1373" y="-184" />
            </Array>
          </mxGeometry>
        </mxCell>
        <mxCell id="l7CJEQ0vIfHJPxA5SVOe-51" value="R" style="edgeLabel;html=1;align=center;verticalAlign=middle;resizable=0;points=[];fontColor=#006EAF;" vertex="1" connectable="0" parent="l7CJEQ0vIfHJPxA5SVOe-50">
          <mxGeometry x="-0.0395" y="-1" relative="1" as="geometry">
            <mxPoint as="offset" />
          </mxGeometry>
        </mxCell>
        <mxCell id="l7CJEQ0vIfHJPxA5SVOe-10" value="&lt;p style=&quot;line-height: normal ; margin-top: 0pt ; margin-bottom: 0pt ; margin-left: 0in ; margin-right: 0in ; text-indent: 0in ; text-align: left ; direction: ltr ; unicode-bidi: embed ; word-break: normal&quot;&gt;&lt;br&gt;&lt;/p&gt;" style="rounded=1;whiteSpace=wrap;html=1;fillColor=none;strokeColor=#6c8ebf;verticalAlign=top;dashed=1;" vertex="1" parent="1">
          <mxGeometry x="-1526" y="-85" width="305" height="58" as="geometry" />
        </mxCell>
        <mxCell id="l7CJEQ0vIfHJPxA5SVOe-52" style="edgeStyle=orthogonalEdgeStyle;rounded=0;orthogonalLoop=1;jettySize=auto;html=1;entryX=0.579;entryY=1.044;entryDx=0;entryDy=0;entryPerimeter=0;fontColor=#006EAF;strokeColor=#006EAF;" edge="1" parent="1" source="l7CJEQ0vIfHJPxA5SVOe-16" target="l7CJEQ0vIfHJPxA5SVOe-24">
          <mxGeometry relative="1" as="geometry" />
        </mxCell>
        <mxCell id="l7CJEQ0vIfHJPxA5SVOe-53" value="R" style="edgeLabel;html=1;align=center;verticalAlign=middle;resizable=0;points=[];fontColor=#006EAF;" vertex="1" connectable="0" parent="l7CJEQ0vIfHJPxA5SVOe-52">
          <mxGeometry x="-0.1694" y="1" relative="1" as="geometry">
            <mxPoint as="offset" />
          </mxGeometry>
        </mxCell>
        <mxCell id="l7CJEQ0vIfHJPxA5SVOe-16" value="&lt;p style=&quot;line-height: normal ; margin-top: 0pt ; margin-bottom: 0pt ; margin-left: 0in ; margin-right: 0in ; text-indent: 0in ; text-align: left ; direction: ltr ; unicode-bidi: embed ; word-break: normal&quot;&gt;&lt;br&gt;&lt;/p&gt;" style="rounded=1;whiteSpace=wrap;html=1;fillColor=none;strokeColor=#6c8ebf;verticalAlign=top;dashed=1;" vertex="1" parent="1">
          <mxGeometry x="-879" y="-80.5" width="299.5" height="54" as="geometry" />
        </mxCell>
        <mxCell id="l7CJEQ0vIfHJPxA5SVOe-49" value="R" style="edgeStyle=orthogonalEdgeStyle;rounded=0;orthogonalLoop=1;jettySize=auto;html=1;entryX=0.5;entryY=1;entryDx=0;entryDy=0;fontColor=#006EAF;strokeColor=#006EAF;" edge="1" parent="1" source="l7CJEQ0vIfHJPxA5SVOe-17" target="l7CJEQ0vIfHJPxA5SVOe-40">
          <mxGeometry relative="1" as="geometry" />
        </mxCell>
        <mxCell id="l7CJEQ0vIfHJPxA5SVOe-71" value="R" style="edgeStyle=orthogonalEdgeStyle;rounded=0;orthogonalLoop=1;jettySize=auto;html=1;entryX=0.5;entryY=1;entryDx=0;entryDy=0;fontColor=#006EAF;strokeColor=#006EAF;" edge="1" parent="1" source="l7CJEQ0vIfHJPxA5SVOe-17" target="cfSpo1sAoN0eUYBv1VR0-18">
          <mxGeometry relative="1" as="geometry">
            <Array as="points">
              <mxPoint x="-1379" y="-271" />
              <mxPoint x="-1555" y="-271" />
            </Array>
          </mxGeometry>
        </mxCell>
        <mxCell id="l7CJEQ0vIfHJPxA5SVOe-17" value="&lt;p style=&quot;line-height: normal ; margin-top: 0pt ; margin-bottom: 0pt ; margin-left: 0in ; margin-right: 0in ; text-indent: 0in ; text-align: left ; direction: ltr ; unicode-bidi: embed ; word-break: normal&quot;&gt;&lt;br&gt;&lt;/p&gt;" style="rounded=1;whiteSpace=wrap;html=1;fillColor=none;strokeColor=#6c8ebf;verticalAlign=top;dashed=1;" vertex="1" parent="1">
          <mxGeometry x="-1547" y="-235.5" width="336" height="51" as="geometry" />
        </mxCell>
        <mxCell id="l7CJEQ0vIfHJPxA5SVOe-18" value="ods_log" style="rounded=1;whiteSpace=wrap;html=1;fillColor=#dae8fc;strokeColor=#6c8ebf;" vertex="1" parent="1">
          <mxGeometry x="-886" y="-225.5" width="72" height="35" as="geometry" />
        </mxCell>
        <mxCell id="l7CJEQ0vIfHJPxA5SVOe-19" value="ods_file" style="rounded=1;whiteSpace=wrap;html=1;fillColor=#dae8fc;strokeColor=#6c8ebf;" vertex="1" parent="1">
          <mxGeometry x="-801" y="-225.5" width="72" height="35" as="geometry" />
        </mxCell>
        <mxCell id="l7CJEQ0vIfHJPxA5SVOe-20" value="ods_api" style="rounded=1;whiteSpace=wrap;html=1;fillColor=#dae8fc;strokeColor=#6c8ebf;" vertex="1" parent="1">
          <mxGeometry x="-691" y="-225.5" width="72" height="35" as="geometry" />
        </mxCell>
        <mxCell id="l7CJEQ0vIfHJPxA5SVOe-21" value="&lt;h1&gt;...&lt;/h1&gt;" style="text;html=1;strokeColor=none;fillColor=none;spacing=5;spacingTop=-20;whiteSpace=wrap;overflow=hidden;rounded=0;fontSize=12;fontColor=#000000;" vertex="1" parent="1">
          <mxGeometry x="-722" y="-227.5" width="28" height="35" as="geometry" />
        </mxCell>
        <mxCell id="l7CJEQ0vIfHJPxA5SVOe-46" style="edgeStyle=orthogonalEdgeStyle;rounded=0;orthogonalLoop=1;jettySize=auto;html=1;fontColor=#006EAF;strokeColor=#006EAF;" edge="1" parent="1" source="l7CJEQ0vIfHJPxA5SVOe-22" target="l7CJEQ0vIfHJPxA5SVOe-41">
          <mxGeometry relative="1" as="geometry" />
        </mxCell>
        <mxCell id="l7CJEQ0vIfHJPxA5SVOe-22" value="&lt;div style=&quot;text-align: left&quot;&gt;&lt;span style=&quot;font-size: 14px&quot;&gt;&lt;font color=&quot;#333333&quot; face=&quot;arial, microsoft yahei, \\5fae软雅黑, \\5b8b体, malgun gothic, meiryo, sans-serif&quot;&gt;dwd_tmp&lt;/font&gt;&lt;/span&gt;&lt;/div&gt;" style="rounded=1;whiteSpace=wrap;html=1;fillColor=#dae8fc;strokeColor=#6c8ebf;" vertex="1" parent="1">
          <mxGeometry x="-671" y="-352" width="60" height="35" as="geometry" />
        </mxCell>
        <mxCell id="l7CJEQ0vIfHJPxA5SVOe-43" style="edgeStyle=orthogonalEdgeStyle;rounded=0;orthogonalLoop=1;jettySize=auto;html=1;entryX=0;entryY=0.5;entryDx=0;entryDy=0;fillColor=#1ba1e2;strokeColor=#006EAF;" edge="1" parent="1" source="l7CJEQ0vIfHJPxA5SVOe-23" target="l7CJEQ0vIfHJPxA5SVOe-40">
          <mxGeometry relative="1" as="geometry" />
        </mxCell>
        <mxCell id="l7CJEQ0vIfHJPxA5SVOe-23" value="&lt;div style=&quot;text-align: left&quot;&gt;&lt;span style=&quot;font-size: 14px&quot;&gt;&lt;font color=&quot;#333333&quot; face=&quot;arial, microsoft yahei, \\5fae软雅黑, \\5b8b体, malgun gothic, meiryo, sans-serif&quot;&gt;dwd_tmp&lt;/font&gt;&lt;/span&gt;&lt;/div&gt;" style="rounded=1;whiteSpace=wrap;html=1;fillColor=#dae8fc;strokeColor=#6c8ebf;" vertex="1" parent="1">
          <mxGeometry x="-1472" y="-352" width="60" height="35" as="geometry" />
        </mxCell>
        <mxCell id="l7CJEQ0vIfHJPxA5SVOe-54" style="edgeStyle=orthogonalEdgeStyle;rounded=0;orthogonalLoop=1;jettySize=auto;html=1;entryX=0.5;entryY=1;entryDx=0;entryDy=0;fontColor=#006EAF;strokeColor=#006EAF;" edge="1" parent="1" source="l7CJEQ0vIfHJPxA5SVOe-24" target="l7CJEQ0vIfHJPxA5SVOe-41">
          <mxGeometry relative="1" as="geometry" />
        </mxCell>
        <mxCell id="l7CJEQ0vIfHJPxA5SVOe-55" value="R" style="edgeLabel;html=1;align=center;verticalAlign=middle;resizable=0;points=[];fontColor=#006EAF;" vertex="1" connectable="0" parent="l7CJEQ0vIfHJPxA5SVOe-54">
          <mxGeometry x="-0.0689" relative="1" as="geometry">
            <mxPoint as="offset" />
          </mxGeometry>
        </mxCell>
        <mxCell id="l7CJEQ0vIfHJPxA5SVOe-69" style="edgeStyle=orthogonalEdgeStyle;rounded=0;orthogonalLoop=1;jettySize=auto;html=1;entryX=0.5;entryY=1;entryDx=0;entryDy=0;fontColor=#006EAF;strokeColor=#006EAF;" edge="1" parent="1" source="l7CJEQ0vIfHJPxA5SVOe-24" target="l7CJEQ0vIfHJPxA5SVOe-25">
          <mxGeometry relative="1" as="geometry">
            <Array as="points">
              <mxPoint x="-751" y="-270" />
              <mxPoint x="-558" y="-270" />
            </Array>
          </mxGeometry>
        </mxCell>
        <mxCell id="l7CJEQ0vIfHJPxA5SVOe-70" value="R" style="edgeLabel;html=1;align=center;verticalAlign=middle;resizable=0;points=[];fontColor=#006EAF;" vertex="1" connectable="0" parent="l7CJEQ0vIfHJPxA5SVOe-69">
          <mxGeometry x="-0.1621" y="1" relative="1" as="geometry">
            <mxPoint as="offset" />
          </mxGeometry>
        </mxCell>
        <mxCell id="l7CJEQ0vIfHJPxA5SVOe-24" value="&lt;p style=&quot;line-height: normal ; margin-top: 0pt ; margin-bottom: 0pt ; margin-left: 0in ; margin-right: 0in ; text-indent: 0in ; text-align: left ; direction: ltr ; unicode-bidi: embed ; word-break: normal&quot;&gt;&lt;br&gt;&lt;/p&gt;" style="rounded=1;whiteSpace=wrap;html=1;fillColor=none;strokeColor=#6c8ebf;verticalAlign=top;dashed=1;" vertex="1" parent="1">
          <mxGeometry x="-894" y="-233.5" width="286" height="51" as="geometry" />
        </mxCell>
        <mxCell id="l7CJEQ0vIfHJPxA5SVOe-25" value="&lt;p style=&quot;line-height: normal; margin: 0pt 0in; text-indent: 0in; text-align: left; direction: ltr; unicode-bidi: embed; word-break: normal; font-size: 12px;&quot;&gt;&lt;font face=&quot;segoe ui&quot; style=&quot;font-size: 12px;&quot;&gt;&lt;span style=&quot;font-size: 12px;&quot;&gt;dim&lt;/span&gt;&lt;/font&gt;&lt;/p&gt;" style="rounded=1;whiteSpace=wrap;html=1;fillColor=none;strokeColor=#6c8ebf;verticalAlign=top;fontSize=12;" vertex="1" parent="1">
          <mxGeometry x="-608" y="-740" width="99" height="292" as="geometry" />
        </mxCell>
        <mxCell id="l7CJEQ0vIfHJPxA5SVOe-88" style="edgeStyle=orthogonalEdgeStyle;rounded=0;orthogonalLoop=1;jettySize=auto;html=1;entryX=1;entryY=0.5;entryDx=0;entryDy=0;fontColor=#006EAF;strokeColor=#006EAF;" edge="1" parent="1" source="l7CJEQ0vIfHJPxA5SVOe-26" target="pqG9o0sj6zr8Hv4IB4PB-124">
          <mxGeometry relative="1" as="geometry">
            <Array as="points">
              <mxPoint x="-665" y="-498" />
              <mxPoint x="-665" y="-558" />
            </Array>
          </mxGeometry>
        </mxCell>
        <mxCell id="l7CJEQ0vIfHJPxA5SVOe-91" value="R" style="edgeLabel;html=1;align=center;verticalAlign=middle;resizable=0;points=[];fontColor=#006EAF;" vertex="1" connectable="0" parent="l7CJEQ0vIfHJPxA5SVOe-88">
          <mxGeometry x="-0.7325" y="3" relative="1" as="geometry">
            <mxPoint as="offset" />
          </mxGeometry>
        </mxCell>
        <mxCell id="l7CJEQ0vIfHJPxA5SVOe-26" value="dim_user" style="rounded=1;whiteSpace=wrap;html=1;fillColor=#dae8fc;strokeColor=#6c8ebf;" vertex="1" parent="1">
          <mxGeometry x="-604.5" y="-515.5" width="90" height="35" as="geometry" />
        </mxCell>
        <mxCell id="l7CJEQ0vIfHJPxA5SVOe-89" value="R" style="edgeStyle=orthogonalEdgeStyle;rounded=0;orthogonalLoop=1;jettySize=auto;html=1;fontColor=#006EAF;strokeColor=#006EAF;entryX=1;entryY=0.5;entryDx=0;entryDy=0;" edge="1" parent="1" source="l7CJEQ0vIfHJPxA5SVOe-27" target="pqG9o0sj6zr8Hv4IB4PB-125">
          <mxGeometry relative="1" as="geometry">
            <Array as="points">
              <mxPoint x="-656" y="-636" />
              <mxPoint x="-656" y="-530" />
            </Array>
          </mxGeometry>
        </mxCell>
        <mxCell id="l7CJEQ0vIfHJPxA5SVOe-27" value="dim_region" style="rounded=1;whiteSpace=wrap;html=1;fillColor=#dae8fc;strokeColor=#6c8ebf;" vertex="1" parent="1">
          <mxGeometry x="-602.5" y="-653.5" width="88" height="35" as="geometry" />
        </mxCell>
        <mxCell id="l7CJEQ0vIfHJPxA5SVOe-90" value="R" style="edgeStyle=orthogonalEdgeStyle;rounded=0;orthogonalLoop=1;jettySize=auto;html=1;entryX=1;entryY=0.5;entryDx=0;entryDy=0;fontColor=#006EAF;strokeColor=#006EAF;" edge="1" parent="1" source="l7CJEQ0vIfHJPxA5SVOe-28" target="pqG9o0sj6zr8Hv4IB4PB-126">
          <mxGeometry relative="1" as="geometry">
            <Array as="points">
              <mxPoint x="-636" y="-590" />
              <mxPoint x="-636" y="-489" />
            </Array>
          </mxGeometry>
        </mxCell>
        <mxCell id="l7CJEQ0vIfHJPxA5SVOe-28" value="dim_equipment" style="rounded=1;whiteSpace=wrap;html=1;fillColor=#dae8fc;strokeColor=#6c8ebf;fontSize=9;" vertex="1" parent="1">
          <mxGeometry x="-602.5" y="-607.5" width="88" height="35" as="geometry" />
        </mxCell>
        <mxCell id="l7CJEQ0vIfHJPxA5SVOe-29" value="&lt;h1&gt;...&lt;/h1&gt;" style="text;html=1;strokeColor=none;fillColor=none;spacing=5;spacingTop=-20;whiteSpace=wrap;overflow=hidden;rounded=0;fontSize=12;fontColor=#000000;" vertex="1" parent="1">
          <mxGeometry x="-578.5" y="-555.5" width="28" height="35" as="geometry" />
        </mxCell>
        <mxCell id="l7CJEQ0vIfHJPxA5SVOe-92" style="edgeStyle=orthogonalEdgeStyle;rounded=0;orthogonalLoop=1;jettySize=auto;html=1;fontColor=#006EAF;strokeColor=#006EAF;" edge="1" parent="1" source="l7CJEQ0vIfHJPxA5SVOe-30">
          <mxGeometry relative="1" as="geometry">
            <mxPoint x="-697" y="-681" as="targetPoint" />
            <Array as="points">
              <mxPoint x="-650" y="-682" />
              <mxPoint x="-696" y="-682" />
            </Array>
          </mxGeometry>
        </mxCell>
        <mxCell id="l7CJEQ0vIfHJPxA5SVOe-93" value="R" style="edgeLabel;html=1;align=center;verticalAlign=middle;resizable=0;points=[];fontColor=#006EAF;" vertex="1" connectable="0" parent="l7CJEQ0vIfHJPxA5SVOe-92">
          <mxGeometry x="-0.1688" y="-1" relative="1" as="geometry">
            <mxPoint as="offset" />
          </mxGeometry>
        </mxCell>
        <mxCell id="l7CJEQ0vIfHJPxA5SVOe-30" value="dim_time" style="rounded=1;whiteSpace=wrap;html=1;fillColor=#dae8fc;strokeColor=#6c8ebf;" vertex="1" parent="1">
          <mxGeometry x="-603.5" y="-700" width="90" height="35" as="geometry" />
        </mxCell>
        <mxCell id="l7CJEQ0vIfHJPxA5SVOe-31" style="edgeStyle=orthogonalEdgeStyle;rounded=0;orthogonalLoop=1;jettySize=auto;html=1;exitX=0.5;exitY=1;exitDx=0;exitDy=0;fontSize=9;fontColor=#006EaF;strokeColor=default;" edge="1" parent="1" source="l7CJEQ0vIfHJPxA5SVOe-25" target="l7CJEQ0vIfHJPxA5SVOe-25">
          <mxGeometry relative="1" as="geometry" />
        </mxCell>
        <mxCell id="l7CJEQ0vIfHJPxA5SVOe-32" value="&lt;div style=&quot;text-align: left&quot;&gt;&lt;span style=&quot;font-size: 14px&quot;&gt;&lt;font color=&quot;#333333&quot; face=&quot;arial, microsoft yahei, \\5fae软雅黑, \\5b8b体, malgun gothic, meiryo, sans-serif&quot;&gt;dwd_networkProbe&lt;/font&gt;&lt;/span&gt;&lt;/div&gt;" style="rounded=1;whiteSpace=wrap;html=1;fillColor=#dae8fc;strokeColor=#6c8ebf;" vertex="1" parent="1">
          <mxGeometry x="-1352.5" y="-351" width="121" height="35" as="geometry" />
        </mxCell>
        <mxCell id="l7CJEQ0vIfHJPxA5SVOe-33" value="dwd_sensor" style="rounded=1;whiteSpace=wrap;html=1;fillColor=#dae8fc;strokeColor=#6c8ebf;" vertex="1" parent="1">
          <mxGeometry x="-1218.5" y="-351" width="72" height="35" as="geometry" />
        </mxCell>
        <mxCell id="l7CJEQ0vIfHJPxA5SVOe-34" value="&lt;h1&gt;...&lt;/h1&gt;" style="text;html=1;strokeColor=none;fillColor=none;spacing=5;spacingTop=-20;whiteSpace=wrap;overflow=hidden;rounded=0;fontSize=12;fontColor=#000000;" vertex="1" parent="1">
          <mxGeometry x="-1138.5" y="-351" width="28" height="35" as="geometry" />
        </mxCell>
        <mxCell id="l7CJEQ0vIfHJPxA5SVOe-35" value="dwd_router" style="rounded=1;whiteSpace=wrap;html=1;fillColor=#dae8fc;strokeColor=#6c8ebf;" vertex="1" parent="1">
          <mxGeometry x="-1106.5" y="-351" width="72" height="35" as="geometry" />
        </mxCell>
        <mxCell id="l7CJEQ0vIfHJPxA5SVOe-36" value="dwd_log" style="rounded=1;whiteSpace=wrap;html=1;fillColor=#dae8fc;strokeColor=#6c8ebf;" vertex="1" parent="1">
          <mxGeometry x="-994" y="-352" width="72" height="35" as="geometry" />
        </mxCell>
        <mxCell id="l7CJEQ0vIfHJPxA5SVOe-37" value="dwd_file" style="rounded=1;whiteSpace=wrap;html=1;fillColor=#dae8fc;strokeColor=#6c8ebf;" vertex="1" parent="1">
          <mxGeometry x="-909" y="-352" width="72" height="35" as="geometry" />
        </mxCell>
        <mxCell id="l7CJEQ0vIfHJPxA5SVOe-38" value="dwd_api" style="rounded=1;whiteSpace=wrap;html=1;fillColor=#dae8fc;strokeColor=#6c8ebf;" vertex="1" parent="1">
          <mxGeometry x="-799" y="-352" width="72" height="35" as="geometry" />
        </mxCell>
        <mxCell id="l7CJEQ0vIfHJPxA5SVOe-39" value="&lt;h1&gt;...&lt;/h1&gt;" style="text;html=1;strokeColor=none;fillColor=none;spacing=5;spacingTop=-20;whiteSpace=wrap;overflow=hidden;rounded=0;fontSize=12;fontColor=#000000;" vertex="1" parent="1">
          <mxGeometry x="-830" y="-354" width="28" height="35" as="geometry" />
        </mxCell>
        <mxCell id="l7CJEQ0vIfHJPxA5SVOe-42" style="edgeStyle=orthogonalEdgeStyle;rounded=0;orthogonalLoop=1;jettySize=auto;html=1;entryX=1;entryY=0.5;entryDx=0;entryDy=0;fillColor=#1ba1e2;strokeColor=#006EAF;" edge="1" parent="1" source="l7CJEQ0vIfHJPxA5SVOe-40" target="l7CJEQ0vIfHJPxA5SVOe-23">
          <mxGeometry relative="1" as="geometry" />
        </mxCell>
        <mxCell id="l7CJEQ0vIfHJPxA5SVOe-44" value="R/W" style="edgeLabel;html=1;align=center;verticalAlign=middle;resizable=0;points=[];fontColor=#006EAF;" vertex="1" connectable="0" parent="l7CJEQ0vIfHJPxA5SVOe-42">
          <mxGeometry x="0.0555" relative="1" as="geometry">
            <mxPoint as="offset" />
          </mxGeometry>
        </mxCell>
        <mxCell id="l7CJEQ0vIfHJPxA5SVOe-74" value="R" style="edgeStyle=orthogonalEdgeStyle;rounded=0;orthogonalLoop=1;jettySize=auto;html=1;entryX=0.478;entryY=1.022;entryDx=0;entryDy=0;entryPerimeter=0;fontColor=#006EAF;strokeColor=#006EAF;" edge="1" parent="1" source="l7CJEQ0vIfHJPxA5SVOe-40" target="pqG9o0sj6zr8Hv4IB4PB-95">
          <mxGeometry relative="1" as="geometry" />
        </mxCell>
        <mxCell id="l7CJEQ0vIfHJPxA5SVOe-100" value="R" style="edgeStyle=orthogonalEdgeStyle;rounded=0;orthogonalLoop=1;jettySize=auto;html=1;entryX=0.843;entryY=1.008;entryDx=0;entryDy=0;entryPerimeter=0;fontColor=#006EAF;strokeColor=#006EAF;" edge="1" parent="1" source="l7CJEQ0vIfHJPxA5SVOe-40" target="pqG9o0sj6zr8Hv4IB4PB-65">
          <mxGeometry relative="1" as="geometry" />
        </mxCell>
        <mxCell id="l7CJEQ0vIfHJPxA5SVOe-40" value="&lt;p style=&quot;line-height: normal ; margin-top: 0pt ; margin-bottom: 0pt ; margin-left: 0in ; margin-right: 0in ; text-indent: 0in ; text-align: left ; direction: ltr ; unicode-bidi: embed ; word-break: normal&quot;&gt;&lt;br&gt;&lt;/p&gt;" style="rounded=1;whiteSpace=wrap;html=1;fillColor=none;strokeColor=#6c8ebf;verticalAlign=top;dashed=1;" vertex="1" parent="1">
          <mxGeometry x="-1371.5" y="-361" width="344" height="55" as="geometry" />
        </mxCell>
        <mxCell id="l7CJEQ0vIfHJPxA5SVOe-45" style="edgeStyle=orthogonalEdgeStyle;rounded=0;orthogonalLoop=1;jettySize=auto;html=1;entryX=0;entryY=0.5;entryDx=0;entryDy=0;fontColor=#006EAF;strokeColor=#006EAF;" edge="1" parent="1" source="l7CJEQ0vIfHJPxA5SVOe-41" target="l7CJEQ0vIfHJPxA5SVOe-22">
          <mxGeometry relative="1" as="geometry" />
        </mxCell>
        <mxCell id="l7CJEQ0vIfHJPxA5SVOe-47" value="R/W" style="edgeLabel;html=1;align=center;verticalAlign=middle;resizable=0;points=[];fontColor=#006EAF;" vertex="1" connectable="0" parent="l7CJEQ0vIfHJPxA5SVOe-45">
          <mxGeometry x="-0.0647" y="1" relative="1" as="geometry">
            <mxPoint as="offset" />
          </mxGeometry>
        </mxCell>
        <mxCell id="l7CJEQ0vIfHJPxA5SVOe-85" value="R" style="edgeStyle=orthogonalEdgeStyle;rounded=0;orthogonalLoop=1;jettySize=auto;html=1;fontColor=#006EAF;strokeColor=#006EAF;" edge="1" parent="1" source="l7CJEQ0vIfHJPxA5SVOe-41" target="pqG9o0sj6zr8Hv4IB4PB-123">
          <mxGeometry relative="1" as="geometry" />
        </mxCell>
        <mxCell id="l7CJEQ0vIfHJPxA5SVOe-41" value="&lt;p style=&quot;line-height: normal ; margin-top: 0pt ; margin-bottom: 0pt ; margin-left: 0in ; margin-right: 0in ; text-indent: 0in ; text-align: left ; direction: ltr ; unicode-bidi: embed ; word-break: normal&quot;&gt;&lt;br&gt;&lt;/p&gt;" style="rounded=1;whiteSpace=wrap;html=1;fillColor=none;strokeColor=#6c8ebf;verticalAlign=top;dashed=1;" vertex="1" parent="1">
          <mxGeometry x="-1003" y="-362" width="283" height="56" as="geometry" />
        </mxCell>
        <mxCell id="l7CJEQ0vIfHJPxA5SVOe-57" value="&lt;h1&gt;...&lt;/h1&gt;" style="text;html=1;strokeColor=none;fillColor=none;spacing=5;spacingTop=-20;whiteSpace=wrap;overflow=hidden;rounded=0;fontSize=12;fontColor=#000000;" vertex="1" parent="1">
          <mxGeometry x="-1267.5" y="-861" width="28" height="35" as="geometry" />
        </mxCell>
        <mxCell id="l7CJEQ0vIfHJPxA5SVOe-58" value="&lt;p style=&quot;line-height: normal ; margin-top: 0pt ; margin-bottom: 0pt ; margin-left: 0in ; margin-right: 0in ; text-indent: 0in ; text-align: left ; direction: ltr ; unicode-bidi: embed ; word-break: normal&quot;&gt;ads_realtimeIndexn&lt;/p&gt;" style="rounded=1;whiteSpace=wrap;html=1;fillColor=#dae8fc;strokeColor=#6c8ebf;verticalAlign=top;" vertex="1" parent="1">
          <mxGeometry x="-1239.5" y="-858.5" width="112" height="30" as="geometry" />
        </mxCell>
        <mxCell id="l7CJEQ0vIfHJPxA5SVOe-59" value="&lt;p style=&quot;line-height: normal ; margin-top: 0pt ; margin-bottom: 0pt ; margin-left: 0in ; margin-right: 0in ; text-indent: 0in ; text-align: left ; direction: ltr ; unicode-bidi: embed ; word-break: normal&quot;&gt;ads_realtimeIndex2&lt;/p&gt;" style="rounded=1;whiteSpace=wrap;html=1;fillColor=#dae8fc;strokeColor=#6c8ebf;verticalAlign=top;" vertex="1" parent="1">
          <mxGeometry x="-1381" y="-858.5" width="112" height="30" as="geometry" />
        </mxCell>
        <mxCell id="l7CJEQ0vIfHJPxA5SVOe-60" value="&lt;p style=&quot;line-height: normal ; margin-top: 0pt ; margin-bottom: 0pt ; margin-left: 0in ; margin-right: 0in ; text-indent: 0in ; text-align: left ; direction: ltr ; unicode-bidi: embed ; word-break: normal&quot;&gt;ads_offLineIndex1&lt;/p&gt;" style="rounded=1;whiteSpace=wrap;html=1;fillColor=#dae8fc;strokeColor=#6c8ebf;verticalAlign=top;" vertex="1" parent="1">
          <mxGeometry x="-984" y="-853.5" width="112" height="30" as="geometry" />
        </mxCell>
        <mxCell id="l7CJEQ0vIfHJPxA5SVOe-61" value="&lt;p style=&quot;line-height: normal ; margin-top: 0pt ; margin-bottom: 0pt ; margin-left: 0in ; margin-right: 0in ; text-indent: 0in ; text-align: left ; direction: ltr ; unicode-bidi: embed ; word-break: normal&quot;&gt;ads_offLineIndex2&lt;/p&gt;" style="rounded=1;whiteSpace=wrap;html=1;fillColor=#dae8fc;strokeColor=#6c8ebf;verticalAlign=top;" vertex="1" parent="1">
          <mxGeometry x="-850.5" y="-853.5" width="112" height="30" as="geometry" />
        </mxCell>
        <mxCell id="l7CJEQ0vIfHJPxA5SVOe-62" value="&lt;p style=&quot;line-height: normal ; margin-top: 0pt ; margin-bottom: 0pt ; margin-left: 0in ; margin-right: 0in ; text-indent: 0in ; text-align: left ; direction: ltr ; unicode-bidi: embed ; word-break: normal&quot;&gt;ads_offLineIndexn&lt;/p&gt;" style="rounded=1;whiteSpace=wrap;html=1;fillColor=#dae8fc;strokeColor=#6c8ebf;verticalAlign=top;" vertex="1" parent="1">
          <mxGeometry x="-713" y="-853.5" width="112" height="30" as="geometry" />
        </mxCell>
        <mxCell id="l7CJEQ0vIfHJPxA5SVOe-63" value="&lt;h1&gt;...&lt;/h1&gt;" style="text;html=1;strokeColor=none;fillColor=none;spacing=5;spacingTop=-20;whiteSpace=wrap;overflow=hidden;rounded=0;fontSize=12;fontColor=#000000;" vertex="1" parent="1">
          <mxGeometry x="-741" y="-858.5" width="28" height="35" as="geometry" />
        </mxCell>
        <mxCell id="l7CJEQ0vIfHJPxA5SVOe-94" style="edgeStyle=orthogonalEdgeStyle;rounded=0;orthogonalLoop=1;jettySize=auto;html=1;entryX=0;entryY=0.5;entryDx=0;entryDy=0;fontColor=#006EAF;strokeColor=#006EAF;" edge="1" parent="1" source="l7CJEQ0vIfHJPxA5SVOe-67" target="pqG9o0sj6zr8Hv4IB4PB-66">
          <mxGeometry relative="1" as="geometry" />
        </mxCell>
        <mxCell id="l7CJEQ0vIfHJPxA5SVOe-95" value="R" style="edgeLabel;html=1;align=center;verticalAlign=middle;resizable=0;points=[];fontColor=#006EAF;" vertex="1" connectable="0" parent="l7CJEQ0vIfHJPxA5SVOe-94">
          <mxGeometry x="0.3725" y="1" relative="1" as="geometry">
            <mxPoint as="offset" />
          </mxGeometry>
        </mxCell>
        <mxCell id="l7CJEQ0vIfHJPxA5SVOe-67" value="dim_site" style="rounded=1;whiteSpace=wrap;html=1;fillColor=#dae8fc;strokeColor=#6c8ebf;" vertex="1" parent="1">
          <mxGeometry x="-1599" y="-711.5" width="88" height="35" as="geometry" />
        </mxCell>
        <mxCell id="l7CJEQ0vIfHJPxA5SVOe-86" value="" style="endArrow=classic;html=1;rounded=0;fontColor=#006EAF;strokeColor=#006EAF;exitX=0.5;exitY=0;exitDx=0;exitDy=0;" edge="1" parent="1" source="pqG9o0sj6zr8Hv4IB4PB-123" target="pqG9o0sj6zr8Hv4IB4PB-132">
          <mxGeometry width="50" height="50" relative="1" as="geometry">
            <mxPoint x="-970" y="-587" as="sourcePoint" />
            <mxPoint x="-920" y="-637" as="targetPoint" />
          </mxGeometry>
        </mxCell>
        <mxCell id="l7CJEQ0vIfHJPxA5SVOe-87" value="R" style="edgeLabel;html=1;align=center;verticalAlign=middle;resizable=0;points=[];fontColor=#006EAF;" vertex="1" connectable="0" parent="l7CJEQ0vIfHJPxA5SVOe-86">
          <mxGeometry x="-0.1755" relative="1" as="geometry">
            <mxPoint as="offset" />
          </mxGeometry>
        </mxCell>
        <mxCell id="l7CJEQ0vIfHJPxA5SVOe-101" value="&lt;p style=&quot;line-height: normal ; margin-top: 0pt ; margin-bottom: 0pt ; margin-left: 0in ; margin-right: 0in ; text-indent: 0in ; text-align: left ; direction: ltr ; unicode-bidi: embed ; word-break: normal&quot;&gt;BigData Data wareHouse&lt;/p&gt;" style="rounded=1;whiteSpace=wrap;html=1;fillColor=none;strokeColor=#6c8ebf;verticalAlign=top;dashed=1;" vertex="1" parent="1">
          <mxGeometry x="-1655" y="-923" width="1222" height="795" as="geometry" />
        </mxCell>
        <mxCell id="l7CJEQ0vIfHJPxA5SVOe-102" value="&lt;p style=&quot;line-height: normal ; margin-top: 0pt ; margin-bottom: 0pt ; margin-left: 0in ; margin-right: 0in ; text-indent: 0in ; text-align: left ; direction: ltr ; unicode-bidi: embed ; word-break: normal&quot;&gt;&lt;br&gt;&lt;/p&gt;" style="rounded=1;whiteSpace=wrap;html=1;fillColor=none;strokeColor=#6c8ebf;verticalAlign=top;dashed=1;" vertex="1" parent="1">
          <mxGeometry x="-1641.5" y="-119.5" width="1211" height="128" as="geometry" />
        </mxCell>
      </root>
    </mxGraphModel>
  </diagram>
</mxfile>
